<svg xmlns:xlink="http://www.w3.org/1999/xlink" xmlns="http://www.w3.org/2000/svg" width="500px" height="500px" viewBox="0 0 500 500" version="1.1">
  <defs>
    <path d="M500 0L500 0L500 500L0 500L0 0L500 0Z" id="path_1"/>
    <path d="M266.12 20.5221L420.565 94.8991Q421.475 95.3373 422.359 95.8259Q423.243 96.3145 424.098 96.8519Q424.954 97.3893 425.777 97.9738Q426.601 98.5582 427.391 99.188Q428.181 99.8178 428.934 100.491Q429.687 101.164 430.401 101.878Q431.115 102.592 431.788 103.345Q432.462 104.099 433.091 104.888Q433.721 105.678 434.306 106.502Q434.89 107.326 435.427 108.181Q435.965 109.036 436.453 109.92Q436.942 110.804 437.38 111.714Q437.818 112.624 438.205 113.557Q438.592 114.491 438.925 115.444Q439.259 116.397 439.538 117.368Q439.818 118.338 440.043 119.323L478.188 286.447Q478.412 287.431 478.582 288.427Q478.751 289.423 478.864 290.427Q478.977 291.43 479.034 292.439Q479.09 293.447 479.09 294.457Q479.09 295.468 479.034 296.476Q478.977 297.484 478.864 298.488Q478.751 299.492 478.582 300.488Q478.412 301.483 478.188 302.468Q477.963 303.453 477.683 304.424Q477.404 305.394 477.07 306.348Q476.736 307.301 476.35 308.234Q475.963 309.167 475.525 310.077Q475.087 310.987 474.598 311.871Q474.11 312.755 473.572 313.611Q473.035 314.466 472.45 315.29Q471.866 316.113 471.236 316.903L364.357 450.926Q363.727 451.715 363.054 452.469Q362.381 453.222 361.666 453.936Q360.952 454.65 360.199 455.323Q359.446 455.996 358.656 456.626Q357.867 457.256 357.043 457.84Q356.219 458.425 355.364 458.962Q354.509 459.5 353.625 459.988Q352.741 460.477 351.831 460.915Q350.921 461.353 349.987 461.74Q349.054 462.126 348.101 462.46Q347.147 462.794 346.177 463.073Q345.206 463.353 344.221 463.578Q343.237 463.802 342.241 463.971Q341.245 464.141 340.241 464.254Q339.238 464.367 338.229 464.423Q337.221 464.48 336.211 464.48L164.789 464.48Q163.779 464.48 162.771 464.423Q161.762 464.367 160.759 464.254Q159.755 464.141 158.759 463.971Q157.763 463.802 156.779 463.578Q155.794 463.353 154.823 463.073Q153.853 462.794 152.899 462.46Q151.946 462.126 151.013 461.74Q150.08 461.353 149.17 460.915Q148.259 460.477 147.375 459.988Q146.491 459.5 145.636 458.962Q144.781 458.425 143.957 457.84Q143.133 457.256 142.344 456.626Q141.554 455.996 140.801 455.323Q140.048 454.65 139.333 453.936Q138.619 453.222 137.946 452.469Q137.273 451.715 136.643 450.926L29.7639 316.903Q29.1341 316.113 28.5496 315.29Q27.9651 314.466 27.4278 313.611Q26.8904 312.755 26.4018 311.871Q25.9132 310.987 25.4749 310.077Q25.0367 309.167 24.6502 308.234Q24.2636 307.301 23.93 306.348Q23.5964 305.394 23.3168 304.424Q23.0372 303.453 22.8124 302.468Q22.5877 301.484 22.4185 300.488Q22.2493 299.492 22.1362 298.488Q22.0231 297.485 21.9665 296.476Q21.9098 295.468 21.9098 294.458Q21.9098 293.448 21.9665 292.439Q22.0231 291.431 22.1362 290.427Q22.2493 289.423 22.4185 288.427Q22.5877 287.432 22.8124 286.447L60.9573 119.323Q61.182 118.338 61.4617 117.368Q61.7413 116.397 62.0749 115.444Q62.4085 114.491 62.795 113.557Q63.1816 112.624 63.6198 111.714Q64.0581 110.804 64.5466 109.92Q65.0352 109.036 65.5726 108.181Q66.11 107.326 66.6945 106.502Q67.279 105.678 67.9088 104.888Q68.5385 104.099 69.2116 103.345Q69.8846 102.592 70.5988 101.878Q71.3131 101.164 72.0662 100.491Q72.8194 99.8177 73.6091 99.188Q74.3988 98.5582 75.2225 97.9737Q76.0463 97.3892 76.9015 96.8519Q77.7568 96.3145 78.6408 95.8259Q79.5248 95.3373 80.4349 94.899L234.88 20.5221Q235.79 20.0839 236.723 19.6973Q237.657 19.3108 238.61 18.9772Q239.563 18.6436 240.534 18.364Q241.505 18.0843 242.489 17.8596Q243.474 17.6348 244.47 17.4656Q245.466 17.2964 246.469 17.1833Q247.473 17.0703 248.481 17.0136Q249.49 16.957 250.5 16.957Q251.51 16.957 252.519 17.0136Q253.527 17.0703 254.531 17.1833Q255.534 17.2964 256.53 17.4656Q257.526 17.6348 258.511 17.8596Q259.496 18.0843 260.466 18.364Q261.437 18.6436 262.39 18.9772Q263.343 19.3108 264.277 19.6973Q265.21 20.0839 266.12 20.5221L266.12 20.5221Z" id="path_2"/>
    <clipPath id="clip_1">
      <use xlink:href="#path_1" clip-rule="evenodd" fill-rule="evenodd"/>
    </clipPath>
    <clipPath id="clip_2">
      <use xlink:href="#path_2"/>
    </clipPath>
  </defs>
  <g id="logo">
    <path d="M500 0L500 0L500 500L0 500L0 0L500 0Z" id="Frame-9" fill="none" stroke="none"/>
    <path d="M266.12 20.5221L420.565 94.8991Q421.475 95.3373 422.359 95.8259Q423.243 96.3145 424.098 96.8519Q424.954 97.3893 425.777 97.9738Q426.601 98.5582 427.391 99.188Q428.181 99.8178 428.934 100.491Q429.687 101.164 430.401 101.878Q431.115 102.592 431.788 103.345Q432.462 104.099 433.091 104.888Q433.721 105.678 434.306 106.502Q434.89 107.326 435.427 108.181Q435.965 109.036 436.453 109.92Q436.942 110.804 437.38 111.714Q437.818 112.624 438.205 113.557Q438.592 114.491 438.925 115.444Q439.259 116.397 439.538 117.368Q439.818 118.338 440.043 119.323L478.188 286.447Q478.412 287.431 478.582 288.427Q478.751 289.423 478.864 290.427Q478.977 291.43 479.034 292.439Q479.09 293.447 479.09 294.457Q479.09 295.468 479.034 296.476Q478.977 297.484 478.864 298.488Q478.751 299.492 478.582 300.488Q478.412 301.483 478.188 302.468Q477.963 303.453 477.683 304.424Q477.404 305.394 477.07 306.348Q476.736 307.301 476.35 308.234Q475.963 309.167 475.525 310.077Q475.087 310.987 474.598 311.871Q474.11 312.755 473.572 313.611Q473.035 314.466 472.45 315.29Q471.866 316.113 471.236 316.903L364.357 450.926Q363.727 451.715 363.054 452.469Q362.381 453.222 361.666 453.936Q360.952 454.65 360.199 455.323Q359.446 455.996 358.656 456.626Q357.867 457.256 357.043 457.84Q356.219 458.425 355.364 458.962Q354.509 459.5 353.625 459.988Q352.741 460.477 351.831 460.915Q350.921 461.353 349.987 461.74Q349.054 462.126 348.101 462.46Q347.147 462.794 346.177 463.073Q345.206 463.353 344.221 463.578Q343.237 463.802 342.241 463.971Q341.245 464.141 340.241 464.254Q339.238 464.367 338.229 464.423Q337.221 464.48 336.211 464.48L164.789 464.48Q163.779 464.48 162.771 464.423Q161.762 464.367 160.759 464.254Q159.755 464.141 158.759 463.971Q157.763 463.802 156.779 463.578Q155.794 463.353 154.823 463.073Q153.853 462.794 152.899 462.46Q151.946 462.126 151.013 461.74Q150.08 461.353 149.17 460.915Q148.259 460.477 147.375 459.988Q146.491 459.5 145.636 458.962Q144.781 458.425 143.957 457.84Q143.133 457.256 142.344 456.626Q141.554 455.996 140.801 455.323Q140.048 454.65 139.333 453.936Q138.619 453.222 137.946 452.469Q137.273 451.715 136.643 450.926L29.7639 316.903Q29.1341 316.113 28.5496 315.29Q27.9651 314.466 27.4278 313.611Q26.8904 312.755 26.4018 311.871Q25.9132 310.987 25.4749 310.077Q25.0367 309.167 24.6502 308.234Q24.2636 307.301 23.93 306.348Q23.5964 305.394 23.3168 304.424Q23.0372 303.453 22.8124 302.468Q22.5877 301.484 22.4185 300.488Q22.2493 299.492 22.1362 298.488Q22.0231 297.485 21.9665 296.476Q21.9098 295.468 21.9098 294.458Q21.9098 293.448 21.9665 292.439Q22.0231 291.431 22.1362 290.427Q22.2493 289.423 22.4185 288.427Q22.5877 287.432 22.8124 286.447L60.9573 119.323Q61.182 118.338 61.4617 117.368Q61.7413 116.397 62.0749 115.444Q62.4085 114.491 62.795 113.557Q63.1816 112.624 63.6198 111.714Q64.0581 110.804 64.5466 109.92Q65.0352 109.036 65.5726 108.181Q66.11 107.326 66.6945 106.502Q67.279 105.678 67.9088 104.888Q68.5385 104.099 69.2116 103.345Q69.8846 102.592 70.5988 101.878Q71.3131 101.164 72.0662 100.491Q72.8194 99.8177 73.6091 99.188Q74.3988 98.5582 75.2225 97.9737Q76.0463 97.3892 76.9015 96.8519Q77.7568 96.3145 78.6408 95.8259Q79.5248 95.3373 80.4349 94.899L234.88 20.5221Q235.79 20.0839 236.723 19.6973Q237.657 19.3108 238.61 18.9772Q239.563 18.6436 240.534 18.364Q241.505 18.0843 242.489 17.8596Q243.474 17.6348 244.47 17.4656Q245.466 17.2964 246.469 17.1833Q247.473 17.0703 248.481 17.0136Q249.49 16.957 250.5 16.957Q251.51 16.957 252.519 17.0136Q253.527 17.0703 254.531 17.1833Q255.534 17.2964 256.53 17.4656Q257.526 17.6348 258.511 17.8596Q259.496 18.0843 260.466 18.364Q261.437 18.6436 262.39 18.9772Q263.343 19.3108 264.277 19.6973Q265.21 20.0839 266.12 20.5221L266.12 20.5221Z" id="Polygon" fill="#4B006E" fill-rule="evenodd" stroke="none" clip-path="url(#clip_1)"/>
    <path d="M250 455.056L160 455.056L29 298L75.5 105.5L250 27.6459L250 455.056Z" id="left" fill="#9C00E5" fill-rule="evenodd" stroke="none" clip-path="url(#clip_1)"/>
    <g id="right" clip-path="url(#clip_1)">
      <g clip-path="url(#clip_2)">
        <use xlink:href="#path_2" fill="none" stroke="#D6C52E" stroke-width="32"/>
      </g>
    </g>
    <g id="c" transform="translate(263 0)" clip-path="url(#clip_1)">
      <g transform="translate(0, 80.64)" stroke="#D6C52E" stroke-width="7" id="P" fill="#D6C52E">
        <path d="M28.8 282.24L28.8 80.64L83.52 80.64Q101.952 80.64 115.92 87.264Q129.888 93.888 137.808 106.56Q145.728 119.232 145.728 137.376Q145.728 155.232 137.808 168.048Q129.888 180.864 115.92 187.488Q101.952 194.112 83.52 194.112L32.832 194.112L32.832 186.336L83.808 186.336Q107.136 186.336 122.256 173.376Q137.376 160.416 137.376 137.376Q137.376 114.336 122.256 101.52Q107.136 88.704 83.808 88.704L33.408 88.704L37.152 84.96L37.152 282.24L28.8 282.24Z"/>
      </g>
    </g>
    <g id="p" transform="translate(58 0)" clip-path="url(#clip_1)">
      <g transform="translate(0, 80.64)" stroke="#D6C52E" stroke-width="7" id="C" fill="#D6C52E">
        <path d="M117.216 286.56Q96.192 286.56 77.904 279.072Q59.616 271.584 45.792 258.048Q31.968 244.512 24.192 225.792Q16.416 207.072 16.416 184.608L16.416 178.272Q16.416 155.808 24.192 137.088Q31.968 118.368 45.792 104.832Q59.616 91.296 77.904 83.808Q96.192 76.32 117.216 76.32Q134.208 76.32 149.184 80.928Q164.16 85.536 175.68 93.888L170.784 100.512Q148.608 84.672 117.216 84.672Q97.92 84.672 81.216 91.44Q64.512 98.208 51.84 110.736Q39.168 123.264 32.112 140.4Q25.056 157.536 25.056 178.272L25.056 184.608Q25.056 205.344 32.112 222.48Q39.168 239.616 51.84 252.144Q64.512 264.672 81.216 271.44Q97.92 278.208 117.216 278.208Q148.896 278.208 170.784 262.08L175.968 268.704Q164.448 277.344 149.328 281.952Q134.208 286.56 117.216 286.56Z"/>
      </g>
    </g>
    <g id="&amp;" transform="translate(122 114)" clip-path="url(#clip_1)">
      <g transform="translate(0.34000015, 44.8)" stroke="#D6C52E" stroke-width="10" id="&amp;" fill="#D6C52E">
        <path d="M95.04 156.8L44.32 109.6Q34.08 100 28.24 93.04Q22.4 86.08 20 80.48Q17.6 74.88 17.6 69.44Q17.6 61.76 21.04 55.84Q24.48 49.92 30.56 46.56Q36.64 43.2 44.48 43.2Q51.52 43.2 57.12 45.92Q62.72 48.64 66.24 53.28L62.56 56Q59.52 51.84 54.88 49.68Q50.24 47.52 44.64 47.52Q34.56 47.52 28.32 53.76Q22.08 60 22.08 69.44Q22.08 74.4 24.32 79.44Q26.56 84.48 32.16 90.96Q37.76 97.44 47.68 106.72L101.76 156.8L95.04 156.8ZM42.08 158.4Q32.16 158.4 24.64 154.64Q17.12 150.88 12.88 144.16Q8.64 137.44 8.64 128.64Q8.64 120.32 12.16 114.32Q15.68 108.32 21.28 104.16Q26.88 100 32.96 97.44L36 100.48Q30.24 102.88 24.96 106.64Q19.68 110.4 16.4 115.76Q13.12 121.12 13.12 128.48Q13.12 136.32 16.96 142.08Q20.8 147.84 27.36 150.96Q33.92 154.08 42.24 154.08Q52 154.08 59.76 150Q67.52 145.92 72 138.56Q76.48 131.2 76.48 121.76L76.48 109.44Q76.48 106.56 77.52 104.56Q78.56 102.56 80.56 101.52Q82.56 100.48 85.28 100.48L101.44 100.48L101.44 104.8L85.6 104.8Q83.2 104.8 82.08 105.92Q80.96 107.04 80.96 109.6L80.96 121.92Q80.96 132.32 75.92 140.56Q70.88 148.8 62.08 153.6Q53.28 158.4 42.08 158.4Z"/>
      </g>
    </g>
  </g>
</svg>